<?xml version="1.0" encoding="UTF-8"?>
<svg version="1.1" xmlns="http://www.w3.org/2000/svg" width="259" height="259">
<path d="M0 0 C85.47 0 170.94 0 259 0 C259 85.47 259 170.94 259 259 C173.53 259 88.06 259 0 259 C0 173.53 0 88.06 0 0 Z " fill="#FEFEFE" transform="translate(0,0)"/>
<path d="M0 0 C5.74417303 4.30812977 10.42446619 9.49506089 15 15 C18.00304503 13.87385811 20.80545108 12.5767022 23.625 11.0625 C36.53192955 4.59692741 49.40503484 4.63433964 63 9 C76.03170265 14.28595168 83.87780295 23.4935959 89.72265625 35.8984375 C91.73548332 40.78585246 92.11565257 44.43474329 92.0625 49.75 C92.05347656 50.92046875 92.04445312 52.0909375 92.03515625 53.296875 C92.01775391 54.63492188 92.01775391 54.63492188 92 56 C92.64324219 55.95359375 93.28648437 55.9071875 93.94921875 55.859375 C105.35625908 55.40374429 115.50588685 58.238786 124 66 C124.60328125 66.50144531 125.2065625 67.00289063 125.828125 67.51953125 C133.19069144 74.09782431 137.58061984 83.39476247 138.203125 93.19921875 C138.38616727 106.82061416 135.14563442 117.67408213 125.6875 127.8125 C113.935644 138.76543596 100.02900405 139.44696406 84.79736328 139.40405273 C82.96316107 139.40976271 81.12896241 139.41672939 79.29476929 139.42485046 C74.33598454 139.44272832 69.37737728 139.44162353 64.41857004 139.43590808 C60.26868836 139.43280821 56.11884038 139.4389176 51.9689635 139.44494683 C42.17345342 139.45897303 32.37803059 139.45744684 22.58251953 139.44604492 C12.49978839 139.43456754 2.41732336 139.44863741 -7.66537273 139.4754414 C-16.34341607 139.49764171 -25.02137614 139.50422596 -33.69944584 139.49836498 C-38.87304823 139.49500434 -44.04648011 139.49735093 -49.22005844 139.51461601 C-54.08756486 139.53015207 -58.95467896 139.52605607 -63.82217026 139.50731087 C-65.6006259 139.50364326 -67.37911104 139.50667963 -69.15753937 139.51719666 C-83.38861184 139.59487929 -95.18614793 138.21077186 -106 128 C-114.5811295 119.50400075 -119.00944932 110.37540766 -119.3125 98.1875 C-119.10755016 86.09545942 -115.09650213 76.08919098 -106.8125 67.25 C-100.69849765 61.42131776 -94.36032831 58.16149279 -86 57 C-86.02094727 56.39639648 -86.04189453 55.79279297 -86.06347656 55.17089844 C-86.73719813 32.80163691 -86.73719813 32.80163691 -82 23 C-81.649375 22.22011719 -81.29875 21.44023438 -80.9375 20.63671875 C-73.78086056 6.24889153 -60.89726581 -2.90079445 -46 -8 C-30.48822652 -12.12602729 -13.19111271 -8.6719352 0 0 Z " fill="#FDFEFC" transform="translate(121,48)"/>
<path d="M0 0 C5.74417303 4.30812977 10.42446619 9.49506089 15 15 C18.00304503 13.87385811 20.80545108 12.5767022 23.625 11.0625 C36.53192955 4.59692741 49.40503484 4.63433964 63 9 C76.03170265 14.28595168 83.87780295 23.4935959 89.72265625 35.8984375 C91.73548332 40.78585246 92.11565257 44.43474329 92.0625 49.75 C92.05347656 50.92046875 92.04445312 52.0909375 92.03515625 53.296875 C92.01775391 54.63492188 92.01775391 54.63492188 92 56 C92.64324219 55.95359375 93.28648437 55.9071875 93.94921875 55.859375 C105.35625908 55.40374429 115.50588685 58.238786 124 66 C124.60328125 66.50144531 125.2065625 67.00289063 125.828125 67.51953125 C133.19069144 74.09782431 137.58061984 83.39476247 138.203125 93.19921875 C138.38616727 106.82061416 135.14563442 117.67408213 125.6875 127.8125 C113.935644 138.76543596 100.02900405 139.44696406 84.79736328 139.40405273 C82.96316107 139.40976271 81.12896241 139.41672939 79.29476929 139.42485046 C74.33598454 139.44272832 69.37737728 139.44162353 64.41857004 139.43590808 C60.26868836 139.43280821 56.11884038 139.4389176 51.9689635 139.44494683 C42.17345342 139.45897303 32.37803059 139.45744684 22.58251953 139.44604492 C12.49978839 139.43456754 2.41732336 139.44863741 -7.66537273 139.4754414 C-16.34341607 139.49764171 -25.02137614 139.50422596 -33.69944584 139.49836498 C-38.87304823 139.49500434 -44.04648011 139.49735093 -49.22005844 139.51461601 C-54.08756486 139.53015207 -58.95467896 139.52605607 -63.82217026 139.50731087 C-65.6006259 139.50364326 -67.37911104 139.50667963 -69.15753937 139.51719666 C-83.38861184 139.59487929 -95.18614793 138.21077186 -106 128 C-114.5811295 119.50400075 -119.00944932 110.37540766 -119.3125 98.1875 C-119.10755016 86.09545942 -115.09650213 76.08919098 -106.8125 67.25 C-100.69849765 61.42131776 -94.36032831 58.16149279 -86 57 C-86.02094727 56.39639648 -86.04189453 55.79279297 -86.06347656 55.17089844 C-86.73719813 32.80163691 -86.73719813 32.80163691 -82 23 C-81.649375 22.22011719 -81.29875 21.44023438 -80.9375 20.63671875 C-73.78086056 6.24889153 -60.89726581 -2.90079445 -46 -8 C-30.48822652 -12.12602729 -13.19111271 -8.6719352 0 0 Z M-64.8125 13.125 C-73.9972865 22.73026313 -77.17833064 32.29597383 -77.25 45.1875 C-77.270625 46.09564453 -77.29125 47.00378906 -77.3125 47.93945312 C-77.34815157 54.16510919 -76.34978202 59.23452806 -74 65 C-74.68964844 64.95359375 -75.37929687 64.9071875 -76.08984375 64.859375 C-83.07065616 64.59125052 -87.97264033 65.45449431 -94 69 C-94.70125 69.4125 -95.4025 69.825 -96.125 70.25 C-103.11710082 74.91140055 -107.37728809 82.09626185 -110 90 C-111.29463387 100.91580767 -109.07902916 109.88145626 -103 119 C-102.34 119 -101.68 119 -101 119 C-100.67 119.99 -100.34 120.98 -100 122 C-97.85593142 123.61662819 -97.85593142 123.61662819 -95.25 125.0625 C-94.38890625 125.56910156 -93.5278125 126.07570313 -92.640625 126.59765625 C-87.41027914 129.37531034 -83.24903059 130.29324241 -77.33554077 130.26742554 C-76.57132203 130.27195665 -75.80710328 130.27648776 -75.0197264 130.28115618 C-72.46279623 130.29380095 -69.90607904 130.29217975 -67.34912109 130.29052734 C-65.5140353 130.29651272 -63.67895203 130.30331829 -61.84387207 130.31088257 C-56.86010397 130.32855309 -51.87640456 130.33323851 -46.89260817 130.33451414 C-43.77630494 130.33593619 -40.66001914 130.34020691 -37.54372025 130.34550858 C-26.66406395 130.36401534 -15.78445667 130.37217875 -4.90478516 130.37060547 C5.22272529 130.36940528 15.35002219 130.390482 25.47747862 130.4220928 C34.18172346 130.44828911 42.88589873 130.45897129 51.59018266 130.45769465 C56.78451883 130.45718582 61.97866541 130.46282481 67.17296219 130.48405075 C72.06336376 130.50348854 76.95339605 130.50351978 81.84381104 130.48901749 C83.63236407 130.48693485 85.42094054 130.49159754 87.20945358 130.5037384 C99.09903171 130.5791777 110.38076811 130.35901377 119.5078125 121.625 C127.27402982 113.16754867 129.64876348 104.9215016 129.33984375 93.4296875 C128.41715522 84.11795724 124.02185708 77.094442 117 71 C108.84920379 65.77022465 100.65976632 63.66117916 91.0625 63.875 C90.28326172 63.88402344 89.50402344 63.89304687 88.70117188 63.90234375 C86.80064553 63.92566309 84.90027992 63.96152414 83 64 C83.15984375 63.28199219 83.3196875 62.56398437 83.484375 61.82421875 C85.5956693 50.26008404 82.98722677 40.12248941 76.71875 30.3203125 C70.79762253 22.32679042 61.82973795 16.83139604 52 15 C37.0204149 13.94452788 27.22927547 17.78379312 15.9375 27.375 C14.968125 28.24125 13.99875 29.1075 13 30 C12.67128906 29.32195312 12.34257812 28.64390625 12.00390625 27.9453125 C5.53934489 15.29649597 -2.89295724 6.38190552 -16.25 1.1875 C-34.18229785 -4.08484814 -51.3510116 0.5173442 -64.8125 13.125 Z " fill="#439CD0" transform="translate(121,48)"/>
<path d="M0 0 C0.66 0.33 1.32 0.66 2 1 C2 3.97 2 6.94 2 10 C0.618125 10.103125 -0.76375 10.20625 -2.1875 10.3125 C-6.16167561 10.73741186 -8.6841264 11.68893658 -12 14 C-12.66 14 -13.32 14 -14 14 C-13.67 14.99 -13.34 15.98 -13 17 C-14.98 17.99 -14.98 17.99 -17 19 C-17 19.99 -17 20.98 -17 22 C-15.35 21.67 -13.7 21.34 -12 21 C-12.37511719 21.44988281 -12.75023438 21.89976563 -13.13671875 22.36328125 C-20.08654807 31.09870903 -23.89104762 39.14487946 -23.50390625 50.484375 C-22.69317698 56.14062575 -20.49939641 60.91106501 -18 66 C-17.67 66.99 -17.34 67.98 -17 69 C-16.34 69 -15.68 69 -15 69 C-14.360625 69.721875 -13.72125 70.44375 -13.0625 71.1875 C-5.45276785 78.85342463 3.97815652 79.64080712 14.17242432 79.68556213 C15.88928452 79.67731295 17.60614247 79.66858439 19.32299805 79.65942383 C21.15712061 79.66788885 22.99123419 79.67853835 24.82533264 79.69119263 C29.77506325 79.71921465 34.72435865 79.71688942 39.67414451 79.70889878 C44.8578446 79.7057634 50.04140858 79.73083824 55.22505188 79.75285339 C65.02785012 79.79023448 74.83050964 79.80243788 84.63337213 79.8054778 C95.79914038 79.81017506 106.96477025 79.84311985 118.13047731 79.87837565 C141.08696813 79.95023131 164.04340577 79.98681433 187 80 C187 80.33 187 80.66 187 81 C128.26 81.33 69.52 81.66 9 82 C9 82.33 9 82.66 9 83 C3.06 83.495 3.06 83.495 -3 84 C-3 83.34 -3 82.68 -3 82 C-1.515 81.505 -1.515 81.505 0 81 C-0.84884766 80.81824219 -0.84884766 80.81824219 -1.71484375 80.6328125 C-2.44832031 80.46523437 -3.18179687 80.29765625 -3.9375 80.125 C-4.66839844 79.96257812 -5.39929688 79.80015625 -6.15234375 79.6328125 C-8 79 -8 79 -9 77 C-9.99 77.495 -9.99 77.495 -11 78 C-10.72382467 79.94074861 -10.72382467 79.94074861 -10 82 C-6.55549263 84.29633824 -4.06187717 84.54016485 0 85 C0 85.99 0 86.98 0 88 C-10.09355104 86.9906449 -17.23149912 81.23333929 -24 74 C-31.70673138 63.69204482 -34.06244952 53.77850249 -33 41 C-30.94239843 29.54761297 -24.96065646 20.31597901 -16 13 C-10.96138348 9.81292329 -6.01631943 7.47497259 0 7 C0 4.69 0 2.38 0 0 Z " fill="#60A8D4" transform="translate(35,98)"/>
<path d="M0 0 C0.76441406 0.01933594 1.52882812 0.03867188 2.31640625 0.05859375 C3.45916016 0.06052734 3.45916016 0.06052734 4.625 0.0625 C7.46732569 0.60929056 8.77426358 1.51624734 10.87890625 3.49609375 C11.34887695 5.73266602 11.34887695 5.73266602 11.3046875 8.3125 C11.29630859 9.24126953 11.28792969 10.17003906 11.27929688 11.12695312 C11.23579102 12.57811523 11.23579102 12.57811523 11.19140625 14.05859375 C11.18173828 15.02990234 11.17207031 16.00121094 11.16210938 17.00195312 C11.04772467 24.15845691 11.04772467 24.15845691 9.87890625 26.49609375 C5.36976507 27.99914081 1.0726042 28.37742152 -3.34765625 26.6015625 C-6.32656229 23.06493176 -5.65645897 19.01935349 -5.55859375 14.55859375 C-5.56568359 13.65173828 -5.57277344 12.74488281 -5.58007812 11.81054688 C-5.47935919 1.28154441 -5.47935919 1.28154441 0 0 Z " fill="#F4CC3B" transform="translate(155.12109375,119.50390625)"/>
<path d="M0 0 C-0.66 1.32 -1.32 2.64 -2 4 C-2.99 4 -3.98 4 -5 4 C-5.73224446 4.16224217 -6.46448893 4.32448435 -7.21892262 4.49164295 C-10.65795838 5.12026914 -14.01509242 5.14150281 -17.49723816 5.13371277 C-18.24330568 5.13597833 -18.9893732 5.13824388 -19.75804883 5.14057809 C-22.25302169 5.14689834 -24.74793995 5.14609002 -27.24291992 5.14526367 C-29.03349376 5.14825626 -30.82406694 5.15165902 -32.61463928 5.15544128 C-37.4738301 5.16427194 -42.33300331 5.16661891 -47.19220138 5.16725707 C-51.24583603 5.16820659 -55.29946657 5.17188509 -59.35309964 5.17542917 C-68.91077623 5.18356895 -78.46844339 5.1860137 -88.02612305 5.18530273 C-97.89812939 5.18470096 -107.77008126 5.19527375 -117.64207381 5.2110464 C-126.11177745 5.22409824 -134.58146322 5.22948768 -143.05117685 5.22884732 C-148.1127068 5.22859179 -153.17418827 5.23147387 -158.23570824 5.24202538 C-162.99056577 5.25166763 -167.74532805 5.25181236 -172.50018883 5.24450874 C-174.24897907 5.24345829 -175.99777512 5.24585284 -177.74655533 5.2518692 C-180.12572179 5.25952701 -182.50455408 5.25498617 -184.88371277 5.24723816 C-185.93208723 5.2549535 -185.93208723 5.2549535 -187.00164098 5.26282471 C-191.77172791 5.22827209 -191.77172791 5.22827209 -194 3 C-193.0590876 2.99668985 -192.1181752 2.99337971 -191.14875031 2.98996925 C-168.2466584 2.90894921 -145.34463328 2.8166257 -122.44263458 2.71247292 C-111.36736937 2.66236654 -100.29211149 2.61592334 -89.21679688 2.578125 C-79.56274837 2.5451679 -69.90875706 2.50531607 -60.25477171 2.45720994 C-55.14381379 2.43198199 -50.03289363 2.41018973 -44.92189026 2.39665604 C-40.10876873 2.38380213 -35.29577696 2.36171178 -30.48272705 2.33261681 C-28.71873886 2.32356705 -26.95472979 2.31785689 -25.1907196 2.31578636 C-22.77612946 2.31244538 -20.36190312 2.2969188 -17.9473877 2.2784729 C-17.25475594 2.28040763 -16.56212419 2.28234237 -15.84850359 2.28433573 C-10.3890353 2.2222878 -5.30339036 0 0 0 Z " fill="#DAF6FF" transform="translate(234,184)"/>
<path d="M0 0 C1.32 0 2.64 0 4 0 C4 5.28 4 10.56 4 16 C6.97 16 9.94 16 13 16 C13 10.72 13 5.44 13 0 C14.32 0 15.64 0 17 0 C17 11.55 17 23.1 17 35 C15.68 35 14.36 35 13 35 C13 30.05 13 25.1 13 20 C10.03 20 7.06 20 4 20 C4 24.95 4 29.9 4 35 C2.68 35 1.36 35 0 35 C0 23.45 0 11.9 0 0 Z " fill="#F1CA40" transform="translate(128,111)"/>
<path d="M0 0 C3 1 3 1 4 3 C4.56818182 9.13636364 4.56818182 9.13636364 2.4375 12.375 C-0.6785229 14.4523486 -3.30463414 14.71574109 -7 15 C-7 17.31 -7 19.62 -7 22 C-4.69 22 -2.38 22 0 22 C0 21.34 0 20.68 0 20 C1.32 20 2.64 20 4 20 C4 24 4 24 2.4375 25.75 C-0.92420278 27.47395014 -3.26445727 27.39321502 -7 27 C-9.6875 26.1328125 -9.6875 26.1328125 -12 24 C-12.7491987 20.49531404 -12.65090648 17.06971023 -12.5625 13.5 C-12.57345703 12.53707031 -12.58441406 11.57414063 -12.59570312 10.58203125 C-12.53990342 5.24757965 -12.53990342 5.24757965 -12 3 C-8.0005302 -0.72724386 -5.26722384 -0.33442691 0 0 Z " fill="#F3CA34" transform="translate(120,120)"/>
<path d="M0 0 C1.65 0 3.3 0 5 0 C5 1.65 5 3.3 5 5 C4.34 5 3.68 5 3 5 C2.855625 6.093125 2.71125 7.18625 2.5625 8.3125 C2 12 2 12 1 15 C0.34 15 -0.32 15 -1 15 C-0.74253792 17.83511188 -0.46943783 20.66730179 -0.1875 23.5 C-0.11724609 24.29148438 -0.04699219 25.08296875 0.02539062 25.8984375 C0.58719776 31.38167517 1.74723748 35.95381195 4 41 C6.01979579 42.55966008 6.01979579 42.55966008 8 43 C8 43.66 8 44.32 8 45 C8.66 45 9.32 45 10 45 C10.33 47.31 10.66 49.62 11 52 C9.02 52.495 9.02 52.495 7 53 C6.773125 52.21625 6.54625 51.4325 6.3125 50.625 C4.65618946 47.31237892 3.35961714 47.25985643 0 46 C-1.375 44.125 -1.375 44.125 -2 42 C-1.625 39.75 -1.625 39.75 -1 38 C-1.99 38 -2.98 38 -4 38 C-3.87431641 36.77023438 -3.87431641 36.77023438 -3.74609375 35.515625 C-3.59333984 33.89914063 -3.59333984 33.89914063 -3.4375 32.25 C-3.33308594 31.18265625 -3.22867187 30.1153125 -3.12109375 29.015625 C-3.01378946 26.34340208 -3.03390007 24.47599264 -4 22 C-4.66 21.67 -5.32 21.34 -6 21 C-6.25 14.375 -6.25 14.375 -4 11 C-3.32215008 8.66989091 -2.65583207 6.33640176 -2 4 C-1.37530495 2.64649406 -0.7283669 1.30065517 0 0 Z " fill="#3F9CD5" transform="translate(10,122)"/>
<path d="M0 0 C3 1.25 3 1.25 5 3 C5 4.32 5 5.64 5 7 C3.68 7 2.36 7 1 7 C0.67 6.34 0.34 5.68 0 5 C-1.98 5 -3.96 5 -6 5 C-6.33 6.98 -6.66 8.96 -7 11 C-5.948125 11.0825 -4.89625 11.165 -3.8125 11.25 C0.41382766 12.08140872 2.22081223 12.71550536 5 16 C5.75950893 19.06273519 5.51606132 20.74881371 5 24 C2.22616877 26.77383123 -0.33787692 27.19332989 -4.125 27.375 C-8 27 -8 27 -10 25.75 C-11 24 -11 24 -11 20 C-9.68 20 -8.36 20 -7 20 C-6.67 20.66 -6.34 21.32 -6 22 C-4.02 22 -2.04 22 0 22 C0.12815365 19.6147267 0.12815365 19.6147267 -1 17 C-2.96227148 15.72775805 -4.94015444 14.81136789 -7.08984375 13.89453125 C-9 13 -9 13 -11 11 C-11.54794521 4.09589041 -11.54794521 4.09589041 -10 1 C-6.7445461 -0.62772695 -3.51550436 -0.5061232 0 0 Z " fill="#F6C922" transform="translate(182,120)"/>
<path d="M0 0 C1.32 0 2.64 0 4 0 C4.33 6.93 4.66 13.86 5 21 C6.98 21 8.96 21 11 21 C11.33 14.07 11.66 7.14 12 0 C13.32 0 14.64 0 16 0 C16.14496508 3.77043032 16.23395607 7.54014742 16.3125 11.3125 C16.35439453 12.38435547 16.39628906 13.45621094 16.43945312 14.56054688 C16.45556641 15.58857422 16.47167969 16.61660156 16.48828125 17.67578125 C16.51446533 18.62364502 16.54064941 19.57150879 16.56762695 20.5480957 C16 23 16 23 13.61865234 24.82373047 C10.77740915 26.09998533 9.35881322 26.25212075 6.3125 25.8125 C5.54550781 25.71582031 4.77851562 25.61914062 3.98828125 25.51953125 C2 25 2 25 0 23 C-0.22705078 20.66162109 -0.22705078 20.66162109 -0.1953125 17.7734375 C-0.18886719 16.7421875 -0.18242188 15.7109375 -0.17578125 14.6484375 C-0.15902344 13.56820312 -0.14226562 12.48796875 -0.125 11.375 C-0.11597656 10.28703125 -0.10695313 9.1990625 -0.09765625 8.078125 C-0.07403409 5.38519848 -0.04109556 2.69270745 0 0 Z " fill="#F1CA45" transform="translate(87,121)"/>
<path d="M0 0 C0.33 0 0.66 0 1 0 C1 11.22 1 22.44 1 34 C0.34 34 -0.32 34 -1 34 C-1.66 33.34 -2.32 32.68 -3 32 C-3 30.68 -3 29.36 -3 28 C-4.32 28 -5.64 28 -7 28 C-7 28.66 -7 29.32 -7 30 C-9.3260857 30.38063221 -11.66055264 30.71269945 -14 31 C-15 30 -15 30 -15.125 26.5 C-15 23 -15 23 -14 22 C-11.66842508 21.65458149 -9.33491639 21.32205743 -7 21 C-6.01 20.67 -5.02 20.34 -4 20 C-4 16.7 -4 13.4 -4 10 C-3.34 10 -2.68 10 -2 10 C-1.67 11.98 -1.34 13.96 -1 16 C-0.67 10.72 -0.34 5.44 0 0 Z " fill="#FEF9D1" transform="translate(127,112)"/>
<path d="M0 0 C1.2065625 0.0309375 1.2065625 0.0309375 2.4375 0.0625 C2.36789063 0.66578125 2.29828125 1.2690625 2.2265625 1.890625 C2.05720416 4.39067673 2.02227165 6.58825272 2.4375 9.0625 C5.04912983 11.58144239 5.04912983 11.58144239 8.4375 13.0625 C9.860625 13.92875 9.860625 13.92875 11.3125 14.8125 C12.01375 15.225 12.715 15.6375 13.4375 16.0625 C13.1075 17.7125 12.7775 19.3625 12.4375 21.0625 C10.4575 21.0625 8.4775 21.0625 6.4375 21.0625 C6.1075 20.0725 5.7775 19.0825 5.4375 18.0625 C4.1175 18.0625 2.7975 18.0625 1.4375 18.0625 C1.1075 19.3825 0.7775 20.7025 0.4375 22.0625 C-0.2225 21.0725 -0.8825 20.0825 -1.5625 19.0625 C-2.2225 19.3925 -2.8825 19.7225 -3.5625 20.0625 C-3.59138514 16.91668577 -3.60925923 13.77090531 -3.625 10.625 C-3.63337891 9.72716797 -3.64175781 8.82933594 -3.65039062 7.90429688 C-3.65361328 7.05029297 -3.65683594 6.19628906 -3.66015625 5.31640625 C-3.66801147 4.13026733 -3.66801147 4.13026733 -3.67602539 2.92016602 C-3.49546255 -0.03446337 -2.96954506 0.07242793 0 0 Z " fill="#FDFBED" transform="translate(169.5625,121.9375)"/>
<path d="M0 0 C-2.55144824 0.93045933 -3.74006478 1.08564091 -6.359375 0.22265625 C-7.14828125 -0.16019531 -7.9371875 -0.54304688 -8.75 -0.9375 C-9.54921875 -1.31777344 -10.3484375 -1.69804688 -11.171875 -2.08984375 C-11.77515625 -2.39019531 -12.3784375 -2.69054688 -13 -3 C-13 -2.34 -13 -1.68 -13 -1 C-13.99 -0.34 -14.98 0.32 -16 1 C-14.7934375 1.433125 -14.7934375 1.433125 -13.5625 1.875 C-11 3 -11 3 -10 5 C-11.216875 4.690625 -12.43375 4.38125 -13.6875 4.0625 C-19.73076221 2.70131794 -25.82945928 2.36241197 -32 2 C-30 0 -30 0 -27.8359375 -0.1953125 C-26.61777344 -0.16050781 -26.61777344 -0.16050781 -25.375 -0.125 C-24.14910156 -0.09792969 -24.14910156 -0.09792969 -22.8984375 -0.0703125 C-21.95871094 -0.03550781 -21.95871094 -0.03550781 -21 0 C-20.67 -1.32 -20.34 -2.64 -20 -4 C-27.60668487 -4.30907523 -35.68309753 -4.25462692 -43 -2 C-44.26151622 -0.04027561 -44.26151622 -0.04027561 -45 2 C-47.4375 2.875 -47.4375 2.875 -50 3 C-50.99 2.34 -51.98 1.68 -53 1 C-35.52849147 -8.58848516 -17.79518866 -10.11883277 0 0 Z " fill="#4B9AC9" transform="translate(192,61)"/>
<path d="M0 0 C4.95 0 9.9 0 15 0 C15 0.99 15 1.98 15 3 C13.02 3 11.04 3 9 3 C9 13.56 9 24.12 9 35 C7.68 35 6.36 35 5 35 C5 24.44 5 13.88 5 3 C3.35 3 1.7 3 0 3 C0 2.01 0 1.02 0 0 Z " fill="#F2C93A" transform="translate(54,111)"/>
<path d="M0 0 C1.32 0 2.64 0 4 0 C4 2.31 4 4.62 4 7 C5.32 7 6.64 7 8 7 C8 7.99 8 8.98 8 10 C6.68 10 5.36 10 4 10 C4.33 15.61 4.66 21.22 5 27 C5.99 27.33 6.98 27.66 8 28 C8 29.32 8 30.64 8 32 C5.6875 32.25 5.6875 32.25 3 32 C0.92088283 30.19548321 0.0853573 28.72610845 -0.23706055 25.98339844 C-0.29554317 23.56543579 -0.26115798 21.16749256 -0.1875 18.75 C-0.17396484 17.90953125 -0.16042969 17.0690625 -0.14648438 16.203125 C-0.11123464 14.13514062 -0.0574302 12.06748729 0 10 C-0.99 10 -1.98 10 -3 10 C-3 9.01 -3 8.02 -3 7 C-2.01 7 -1.02 7 0 7 C0 4.69 0 2.38 0 0 Z " fill="#F0CB3B" transform="translate(195,114)"/>
<path d="M0 0 C2.5625 0.1875 2.5625 0.1875 4.5625 2.1875 C4.70757695 4.93235593 4.74902423 7.57230543 4.6875 10.3125 C4.67847656 11.06660156 4.66945312 11.82070312 4.66015625 12.59765625 C4.6365687 14.46107254 4.60069719 16.32432593 4.5625 18.1875 C2.2364143 18.56813221 -0.09805264 18.90019945 -2.4375 19.1875 C-4.3230253 17.3019747 -3.56996689 14.60981169 -3.57421875 12.10546875 C-3.57035156 11.30753906 -3.56648437 10.50960937 -3.5625 9.6875 C-3.56636719 8.88957031 -3.57023438 8.09164062 -3.57421875 7.26953125 C-3.56234183 0.27402629 -3.56234183 0.27402629 0 0 Z " fill="#FDFCFB" transform="translate(157.4375,123.8125)"/>
<path d="M0 0 C1.56612086 4.46293264 0.09177527 7.22931244 -1.70703125 11.41015625 C-5.14107758 18.28862366 -10.43559731 24.8710047 -17 29 C-17.99 28.67 -18.98 28.34 -20 28 C-18 25 -18 25 -16 24.5625 C-13.7925291 24.18729876 -13.7925291 24.18729876 -12.75 21.9375 C-12.37875 20.9784375 -12.37875 20.9784375 -12 20 C-11.34 20 -10.68 20 -10 20 C-10.33 19.01 -10.66 18.02 -11 17 C-12.29409289 17.61996078 -13.58519673 18.24616353 -14.875 18.875 C-15.59429687 19.22304687 -16.31359375 19.57109375 -17.0546875 19.9296875 C-19.15135019 20.96557543 -19.15135019 20.96557543 -21 23 C-23.125 22.625 -23.125 22.625 -25 22 C-24.01 21.54625 -23.02 21.0925 -22 20.625 C-16.73495807 17.67485381 -13.51305017 12.78139816 -10 8 C-7.8614515 10.1385485 -7.57344937 11.13275314 -7 14 C-6.67 13.34 -6.34 12.68 -6 12 C-5.34 12 -4.68 12 -4 12 C-4.33 10.68 -4.66 9.36 -5 8 C-4.34 8 -3.68 8 -3 8 C-2.690625 6.865625 -2.38125 5.73125 -2.0625 4.5625 C-1 1 -1 1 0 0 Z " fill="#4C9BCA" transform="translate(257,152)"/>
<path d="M0 0 C0.33 0 0.66 0 1 0 C1.33 10.89 1.66 21.78 2 33 C2.33 33 2.66 33 3 33 C3.33 26.07 3.66 19.14 4 12 C4.99 12 5.98 12 7 12 C6.67 12.33 6.34 12.66 6 13 C5.7223556 16.30438909 5.76825012 19.62282134 5.75 22.9375 C5.729375 23.87013672 5.70875 24.80277344 5.6875 25.76367188 C5.68234375 26.65505859 5.6771875 27.54644531 5.671875 28.46484375 C5.6625293 29.285896 5.65318359 30.10694824 5.64355469 30.95288086 C5.76118164 31.62843018 5.87880859 32.30397949 6 33 C9.31371 35.20914 10.3446021 35.22481553 14.1875 35.125 C15.08855469 35.10695312 15.98960937 35.08890625 16.91796875 35.0703125 C17.60503906 35.04710937 18.29210937 35.02390625 19 35 C18.67 35.66 18.34 36.32 18 37 C16.25008666 37.02715383 14.50005055 37.04646551 12.75 37.0625 C11.77546875 37.07410156 10.8009375 37.08570313 9.796875 37.09765625 C7 37 7 37 4.765625 36.43359375 C2.90909977 35.77560823 2.90909977 35.77560823 1 37 C-1.3400417 36.71758117 -3.67504723 36.38749213 -6 36 C-6 31.38 -6 26.76 -6 22 C-8.31 22 -10.62 22 -13 22 C-13 21.34 -13 20.68 -13 20 C-10.03 20 -7.06 20 -4 20 C-4 24.95 -4 29.9 -4 35 C-2.68 35 -1.36 35 0 35 C0 23.45 0 11.9 0 0 Z " fill="#FEF9C4" transform="translate(145,111)"/>
<path d="M0 0 C0 1.32 0 2.64 0 4 C-1.65 4.33 -3.3 4.66 -5 5 C-5.33 11.93 -5.66 18.86 -6 26 C-7.32 26 -8.64 26 -10 26 C-10.11597653 22.22942453 -10.18717396 18.45930607 -10.25 14.6875 C-10.28351563 13.61564453 -10.31703125 12.54378906 -10.3515625 11.43945312 C-10.36445312 10.41142578 -10.37734375 9.38339844 -10.390625 8.32421875 C-10.41157227 7.37635498 -10.43251953 6.42849121 -10.45410156 5.4519043 C-10 3 -10 3 -8.17871094 1.17895508 C-5.34258779 -0.35574222 -3.17458445 -0.21644894 0 0 Z " fill="#F1CB3B" transform="translate(83,120)"/>
<path d="M0 0 C7.01155163 -1.00165023 12.14080548 1.1697845 18 5 C20.625 7.8125 20.625 7.8125 22 10 C21.34 10 20.68 10 20 10 C19.67 10.99 19.34 11.98 19 13 C17.68 12.67 16.36 12.34 15 12 C15 11.01 15 10.02 15 9 C14.42765625 8.86722656 13.8553125 8.73445313 13.265625 8.59765625 C11.02349125 8.00619683 8.91420381 7.26711146 6.75 6.4375 C6.04359375 6.16808594 5.3371875 5.89867187 4.609375 5.62109375 C4.07828125 5.41613281 3.5471875 5.21117187 3 5 C3 4.34 3 3.68 3 3 C1.35 3 -0.3 3 -2 3 C-1.34 2.01 -0.68 1.02 0 0 Z " fill="#3B9DD7" transform="translate(103,44)"/>
<path d="M0 0 C0.33 0 0.66 0 1 0 C1 6.6 1 13.2 1 20 C1.66 20 2.32 20 3 20 C3 17.03 3 14.06 3 11 C3.66 11.33 4.32 11.66 5 12 C5 14.31 5 16.62 5 19 C7.31 19 9.62 19 12 19 C12 18.34 12 17.68 12 17 C13.32 17 14.64 17 16 17 C16 21 16 21 14.4375 22.75 C10.28694312 24.87849071 6.66706182 24.5275817 2.296875 23.14453125 C0 21 0 21 -0.39868164 18.78515625 C-0.49390471 15.94558876 -0.43428307 13.15098228 -0.3125 10.3125 C-0.28994141 9.32443359 -0.26738281 8.33636719 -0.24414062 7.31835938 C-0.18517988 4.87738441 -0.10295048 2.43945132 0 0 Z " fill="#F1CC35" transform="translate(108,123)"/>
<path d="M0 0 C0.33 0 0.66 0 1 0 C1.33 2.31 1.66 4.62 2 7 C2.66 5.02 3.32 3.04 4 1 C4.66 1.33 5.32 1.66 6 2 C5.99214478 2.93851807 5.99214478 2.93851807 5.98413086 3.89599609 C5.96338382 6.72232057 5.95034714 9.54862905 5.9375 12.375 C5.92912109 13.35984375 5.92074219 14.3446875 5.91210938 15.359375 C5.90727539 16.77089844 5.90727539 16.77089844 5.90234375 18.2109375 C5.89448853 19.51490479 5.89448853 19.51490479 5.88647461 20.84521484 C5.85877649 23.05049994 5.85877649 23.05049994 7 25 C6.01 25 5.02 25 4 25 C4 23.35 4 21.7 4 20 C3.01 20 2.02 20 1 20 C0.67 20.66 0.34 21.32 0 22 C0 14.74 0 7.48 0 0 Z " fill="#FEFAD0" transform="translate(103,121)"/>
<path d="M0 0 C0 0.33 0 0.66 0 1 C-1.08539063 1.25394531 -2.17078125 1.50789063 -3.2890625 1.76953125 C-4.73446724 2.11680382 -6.17977465 2.46448164 -7.625 2.8125 C-8.33785156 2.97814453 -9.05070312 3.14378906 -9.78515625 3.31445312 C-14.21101836 4.39046547 -17.94168208 5.87334391 -22 8 C-22.66 8 -23.32 8 -24 8 C-24.144375 8.61875 -24.28875 9.2375 -24.4375 9.875 C-25 12 -25 12 -26 14 C-25.34 14.33 -24.68 14.66 -24 15 C-25.423125 15.3403125 -25.423125 15.3403125 -26.875 15.6875 C-30.19323388 16.69083714 -30.19323388 16.69083714 -31.375 19.625 C-31.58125 20.40875 -31.7875 21.1925 -32 22 C-32.66 22 -33.32 22 -34 22 C-32.26961892 14.501682 -27.34518945 8.2195039 -20.9375 4.0625 C-13.8680989 0.15004519 -7.97495816 -0.25542571 0 0 Z " fill="#E7F9FD" transform="translate(47,113)"/>
<path d="M0 0 C1.32 0 2.64 0 4 0 C4 5.28 4 10.56 4 16 C3.34 15.67 2.68 15.34 2 15 C1.67 21.27 1.34 27.54 1 34 C1.66 34 2.32 34 3 34 C3 29.38 3 24.76 3 20 C3.33 20 3.66 20 4 20 C4 24.95 4 29.9 4 35 C2.68 35 1.36 35 0 35 C0 23.45 0 11.9 0 0 Z " fill="#F3CA47" transform="translate(128,111)"/>
<path d="M0 0 C0.99 0.66 1.98 1.32 3 2 C2.72285156 2.59167969 2.44570312 3.18335937 2.16015625 3.79296875 C1.61681641 4.97826172 1.61681641 4.97826172 1.0625 6.1875 C0.70285156 6.96480469 0.34320312 7.74210938 -0.02734375 8.54296875 C-4.12871778 18.90346781 -2.5211742 30.72990858 1 41 C0.071875 40.4740625 0.071875 40.4740625 -0.875 39.9375 C-1.57625 39.628125 -2.2775 39.31875 -3 39 C-3.99 39.495 -3.99 39.495 -5 40 C-5.13442708 33.21890038 -4.95029601 26.46001092 -4.625 19.6875 C-4.59414307 18.92324707 -4.56328613 18.15899414 -4.53149414 17.37158203 C-4.29790489 12.92610185 -3.63993661 9.19317125 -2 5 C-1.34 5 -0.68 5 0 5 C0 3.35 0 1.7 0 0 Z " fill="#EAFBFC" transform="translate(5,123)"/>
<path d="M0 0 C0 0.33 0 0.66 0 1 C-0.6705542 1.05534912 -1.3411084 1.11069824 -2.03198242 1.16772461 C-5.08407737 1.42134011 -8.13578314 1.67937638 -11.1875 1.9375 C-12.24259766 2.02451172 -13.29769531 2.11152344 -14.38476562 2.20117188 C-15.40634766 2.28818359 -16.42792969 2.37519531 -17.48046875 2.46484375 C-18.41785889 2.543396 -19.35524902 2.62194824 -20.32104492 2.70288086 C-22.94609319 2.99402127 -25.44656658 3.31884078 -28 4 C-28.33 4.66 -28.66 5.32 -29 6 C-30 8 -30 8 -32.4375 8.875 C-35 9 -35 9 -38 7 C-25.75612916 0.28047869 -13.92818566 -3.0114996 0 0 Z " fill="#4D9EC8" transform="translate(177,55)"/>
<path d="M0 0 C0.33 0 0.66 0 1 0 C1.06058594 1.03640625 1.12117188 2.0728125 1.18359375 3.140625 C1.26803371 4.51042873 1.35267997 5.88021975 1.4375 7.25 C1.47681641 7.93191406 1.51613281 8.61382812 1.55664062 9.31640625 C1.74968824 14.26686903 1.74968824 14.26686903 3 19 C3.99 19.33 4.98 19.66 6 20 C6 13.4 6 6.8 6 0 C6.66 0 7.32 0 8 0 C8.02887814 3.47914941 8.04675687 6.95826831 8.0625 10.4375 C8.07087891 11.43072266 8.07925781 12.42394531 8.08789062 13.44726562 C8.09111328 14.39150391 8.09433594 15.33574219 8.09765625 16.30859375 C8.10289307 17.18314209 8.10812988 18.05769043 8.11352539 18.95874023 C8 21 8 21 7 22 C4 22.125 4 22.125 1 22 C0 21 0 21 -0.11352539 18.95874023 C-0.10828857 18.08419189 -0.10305176 17.20964355 -0.09765625 16.30859375 C-0.09443359 15.36435547 -0.09121094 14.42011719 -0.08789062 13.44726562 C-0.07951172 12.45404297 -0.07113281 11.46082031 -0.0625 10.4375 C-0.05798828 9.44041016 -0.05347656 8.44332031 -0.04882812 7.41601562 C-0.03700007 4.94395151 -0.02051849 2.47200482 0 0 Z " fill="#FEFBCC" transform="translate(91,121)"/>
<path d="M0 0 C9.41002278 -0.18451025 9.41002278 -0.18451025 14 1 C14 1.99 14 2.98 14 4 C12.02 4 10.04 4 8 4 C8 4.99 8 5.98 8 7 C5.6739143 7.38063221 3.33944736 7.71269945 1 8 C0 7 0 7 -0.0625 3.4375 C-0.041875 2.303125 -0.02125 1.16875 0 0 Z " fill="#FCFBE9" transform="translate(112,135)"/>
<path d="M0 0 C2.475 0.495 2.475 0.495 5 1 C5 5.95 5 10.9 5 16 C6.98 16 8.96 16 11 16 C11 11.05 11 6.1 11 1 C12.65 0.67 14.3 0.34 16 0 C16.33 0.66 16.66 1.32 17 2 C15.68 2 14.36 2 13 2 C13 7.28 13 12.56 13 18 C10.03 18 7.06 18 4 18 C4 12.72 4 7.44 4 2 C2.68 2 1.36 2 0 2 C0 1.34 0 0.68 0 0 Z " fill="#FEFDCF" transform="translate(128,109)"/>
<path d="M0 0 C1.15242188 0.11085937 2.30484375 0.22171875 3.4921875 0.3359375 C4.36101562 0.43132813 5.22984375 0.52671875 6.125 0.625 C3.79891956 4.11412067 2.34016523 4.40954411 -1.640625 5.28125 C-5.68840595 5.90398553 -10.1324053 6.49629735 -13.875 4.625 C-13.545 3.635 -13.215 2.645 -12.875 1.625 C-8.40063474 -0.43294248 -4.84408797 -0.49429469 0 0 Z " fill="#3C9DD7" transform="translate(78.875,43.375)"/>
<path d="M0 0 C-0.66 0.33 -1.32 0.66 -2 1 C-3.69921875 0.2578125 -3.69921875 0.2578125 -5.6875 -0.875 C-9.54656369 -2.9209387 -12.66667039 -3.6388892 -17 -4 C-17 -4.66 -17 -5.32 -17 -6 C-26.54292152 -6.99888524 -35.49190959 -7.38299497 -45 -6 C-45.33 -6.66 -45.66 -7.32 -46 -8 C-29.94880042 -11.95695576 -13.86105461 -8.43123203 0 0 Z " fill="#559BC4" transform="translate(121,48)"/>
<path d="M0 0 C0.33 0 0.66 0 1 0 C1 3.63 1 7.26 1 11 C1.66 11 2.32 11 3 11 C3 17.93 3 24.86 3 32 C2.01 32 1.02 32 0 32 C0 21.44 0 10.88 0 0 Z " fill="#FEFEEB" transform="translate(146,112)"/>
<path d="M0 0 C0 0.33 0 0.66 0 1 C-1.65 1.33 -3.3 1.66 -5 2 C-4.01 2.33 -3.02 2.66 -2 3 C-2 3.66 -2 4.32 -2 5 C-4.97 4.505 -4.97 4.505 -8 4 C-8.309375 4.78375 -8.61875 5.5675 -8.9375 6.375 C-10 9 -10 9 -11 11 C-13.5625 11.625 -13.5625 11.625 -16 12 C-16.33 10.68 -16.66 9.36 -17 8 C-16.01 7.319375 -16.01 7.319375 -15 6.625 C-14.34 6.08875 -13.68 5.5525 -13 5 C-13 4.34 -13 3.68 -13 3 C-8.1942374 -0.17180332 -5.81427302 -1.70173845 0 0 Z " fill="#3C9ED9" transform="translate(34,109)"/>
<path d="M0 0 C1.4540625 0.0309375 1.4540625 0.0309375 2.9375 0.0625 C2.9375 1.3825 2.9375 2.7025 2.9375 4.0625 C3.9275 4.7225 4.9175 5.3825 5.9375 6.0625 C5.6075 6.7225 5.2775 7.3825 4.9375 8.0625 C5.5975 8.0625 6.2575 8.0625 6.9375 8.0625 C6.9375 8.7225 6.9375 9.3825 6.9375 10.0625 C7.5975 10.3925 8.2575 10.7225 8.9375 11.0625 C5.21960369 11.0625 3.22342728 9.73899351 -0.0625 8.0625 C-2.29775035 7.37613375 -2.29775035 7.37613375 -4.0625 7.0625 C-4.10504356 5.06295254 -4.10330783 3.06208364 -4.0625 1.0625 C-3.0625 0.0625 -3.0625 0.0625 0 0 Z " fill="#FCF9ED" transform="translate(179.0625,123.9375)"/>
<path d="M0 0 C0.33 0 0.66 0 1 0 C1.33 4.29 1.66 8.58 2 13 C4.31 13.66 6.62 14.32 9 15 C9 15.66 9 16.32 9 17 C7.02 17.33 5.04 17.66 3 18 C2.67 22.62 2.34 27.24 2 32 C1.34 32 0.68 32 0 32 C0 21.44 0 10.88 0 0 Z " fill="#FCC71D" transform="translate(129,113)"/>
<path d="M0 0 C1.32 0 2.64 0 4 0 C4 2.31 4 4.62 4 7 C5.32 7 6.64 7 8 7 C8 7.99 8 8.98 8 10 C7.34 10 6.68 10 6 10 C6 9.34 6 8.68 6 8 C4.35 7.67 2.7 7.34 1 7 C1 13.93 1 20.86 1 28 C0.67 28 0.34 28 0 28 C0 22.06 0 16.12 0 10 C-0.99 10 -1.98 10 -3 10 C-3 9.01 -3 8.02 -3 7 C-2.01 7 -1.02 7 0 7 C0 4.69 0 2.38 0 0 Z " fill="#EFC946" transform="translate(195,114)"/>
<path d="M0 0 C0.99 0 1.98 0 3 0 C3 7.26 3 14.52 3 22 C2.01 22 1.02 22 0 22 C0 14.74 0 7.48 0 0 Z " fill="#F1CA2E" transform="translate(87,122)"/>
<path d="M0 0 C0.99 0 1.98 0 3 0 C3.33 1.98 3.66 3.96 4 6 C3.31035156 6.02578125 2.62070312 6.0515625 1.91015625 6.078125 C-4.06880482 6.43899508 -8.75795854 7.37897927 -14.125 10.0625 C-16 11 -16 11 -19 12 C-19 9 -19 9 -17 6 C-15.00045254 5.95745644 -12.99958364 5.95919217 -11 6 C-10.01 5.34 -9.02 4.68 -8 4 C-5.51953125 3.8046875 -5.51953125 3.8046875 -2.8125 3.875 C-1.91144531 3.89304687 -1.01039062 3.91109375 -0.08203125 3.9296875 C0.60503906 3.95289062 1.29210937 3.97609375 2 4 C2 3.34 2 2.68 2 2 C1.34 2 0.68 2 0 2 C0 1.34 0 0.68 0 0 Z " fill="#5AA0CD" transform="translate(43,107)"/>
<path d="M0 0 C-3.1781341 2.11875607 -6.32692839 3.45458552 -9.84375 4.90234375 C-12.04257662 6.02167397 -13.29040203 7.25669165 -15 9 C-17.6875 9.6875 -17.6875 9.6875 -20 10 C-20 10.66 -20 11.32 -20 12 C-21.98260426 13.68732277 -23.9832342 15.35366057 -26 17 C-26.33 17.66 -26.66 18.32 -27 19 C-27.66 19 -28.32 19 -29 19 C-24.52465877 9.28935393 -15.09394171 4.68406545 -6 0 C-3 -1 -3 -1 0 0 Z " fill="#549FC8" transform="translate(75,42)"/>
<path d="M0 0 C0.33 0 0.66 0 1 0 C1.33 5.28 1.66 10.56 2 16 C2.66 16 3.32 16 4 16 C4.3403125 17.670625 4.3403125 17.670625 4.6875 19.375 C5.60623658 23.16038373 5.60623658 23.16038373 8.625 24.4375 C9.40875 24.623125 10.1925 24.80875 11 25 C11 27.31 11 29.62 11 32 C10.34 31.67 9.68 31.34 9 31 C9 30.34 9 29.68 9 29 C8.34 29 7.68 29 7 29 C6.01836578 27.06374902 5.03977546 25.12595461 4.0625 23.1875 C3.51722656 22.10855469 2.97195312 21.02960938 2.41015625 19.91796875 C0.16611532 15.2744824 -0.10956603 11.94269677 -0.0625 6.8125 C-0.05347656 5.54019531 -0.04445313 4.26789063 -0.03515625 2.95703125 C-0.02355469 1.98121094 -0.01195312 1.00539062 0 0 Z " fill="#D4F2FD" transform="translate(11,138)"/>
<path d="M0 0 C2.5625 0.1875 2.5625 0.1875 4.5625 2.1875 C4.70757695 4.93235593 4.74902423 7.57230543 4.6875 10.3125 C4.67847656 11.06660156 4.66945312 11.82070312 4.66015625 12.59765625 C4.6365687 14.46107254 4.60069719 16.32432593 4.5625 18.1875 C2.2364143 18.56813221 -0.09805264 18.90019945 -2.4375 19.1875 C-4.3230253 17.3019747 -3.56996689 14.60981169 -3.57421875 12.10546875 C-3.57035156 11.30753906 -3.56648437 10.50960937 -3.5625 9.6875 C-3.56636719 8.88957031 -3.57023438 8.09164062 -3.57421875 7.26953125 C-3.56234183 0.27402629 -3.56234183 0.27402629 0 0 Z M-1.05078125 2.26953125 C-3.10537749 5.11124042 -2.72760442 7.42065127 -2.625 10.875 C-2.59792969 12.05449219 -2.57085937 13.23398438 -2.54296875 14.44921875 C-2.50816406 15.35285156 -2.47335938 16.25648438 -2.4375 17.1875 C-0.4575 17.1875 1.5225 17.1875 3.5625 17.1875 C3.58942484 14.89589681 3.60886124 12.60420454 3.625 10.3125 C3.63660156 9.03632813 3.64820313 7.76015625 3.66015625 6.4453125 C3.79426569 3.30085348 3.79426569 3.30085348 2.5625 1.1875 C0.51557647 1.00182723 0.51557647 1.00182723 -1.05078125 2.26953125 Z " fill="#FEFBC3" transform="translate(157.4375,123.8125)"/>
<path d="M0 0 C2.475 0.495 2.475 0.495 5 1 C4.34 2.65 3.68 4.3 3 6 C3.99 6 4.98 6 6 6 C6.33 8.97 6.66 11.94 7 15 C5.35 14.67 3.7 14.34 2 14 C1.34 9.38 0.68 4.76 0 0 Z " fill="#3E9CD4" transform="translate(205,87)"/>
<path d="M0 0 C3 0.125 3 0.125 4 1.125 C4.125 3.625 4.125 3.625 4 6.125 C3 7.125 3 7.125 -0.5625 7.1875 C-1.696875 7.166875 -2.83125 7.14625 -4 7.125 C-4.04254356 5.12545254 -4.04080783 3.12458364 -4 1.125 C-3 0.125 -3 0.125 0 0 Z " fill="#FDFAD3" transform="translate(116,123.875)"/>
<path d="M0 0 C0.66 0.33 1.32 0.66 2 1 C2 3.97 2 6.94 2 10 C0.700625 10.061875 -0.59875 10.12375 -1.9375 10.1875 C-6.77114174 10.68463087 -10.09684944 12.44984039 -14.15234375 15.0390625 C-14.76207031 15.35617188 -15.37179688 15.67328125 -16 16 C-16.66 15.67 -17.32 15.34 -18 15 C-12.57068129 10.81490016 -7.12472935 7 0 7 C0 4.69 0 2.38 0 0 Z " fill="#589FC8" transform="translate(35,98)"/>
<path d="M0 0 C0.33 0 0.66 0 1 0 C1 3.63 1 7.26 1 11 C-0.98 11 -2.96 11 -5 11 C-5.66 12.32 -6.32 13.64 -7 15 C-7 10.71 -7 6.42 -7 2 C-6.34 2 -5.68 2 -5 2 C-4.9175 2.78375 -4.835 3.5675 -4.75 4.375 C-4.5025 5.24125 -4.255 6.1075 -4 7 C-2.68 7.66 -1.36 8.32 0 9 C0 6.03 0 3.06 0 0 Z " fill="#4698C8" transform="translate(212,93)"/>
<path d="M0 0 C0.99 0 1.98 0 3 0 C3.04898438 1.25296875 3.09796875 2.5059375 3.1484375 3.796875 C3.22348583 5.44793821 3.29903277 7.09897881 3.375 8.75 C3.4059375 9.575 3.436875 10.4 3.46875 11.25 C3.50742188 12.04921875 3.54609375 12.8484375 3.5859375 13.671875 C3.6173584 14.4050293 3.6487793 15.13818359 3.68115234 15.89355469 C4.03772523 18.24922918 4.83662883 19.93450591 6 22 C3.525 21.01 3.525 21.01 1 20 C0.67 13.4 0.34 6.8 0 0 Z " fill="#FFFDC7" transform="translate(192,124)"/>
<path d="M0 0 C0.66 0 1.32 0 2 0 C2 2.97 2 5.94 2 9 C2.99 9 3.98 9 5 9 C5 9.66 5 10.32 5 11 C4.01 11 3.02 11 2 11 C2 13.97 2 16.94 2 20 C1.34 20 0.68 20 0 20 C0 13.4 0 6.8 0 0 Z " fill="#FACA14" transform="translate(109,123)"/>
<path d="M0 0 C1.32 0 2.64 0 4 0 C4.33 0.66 4.66 1.32 5 2 C7.31 2 9.62 2 12 2 C12 2.66 12 3.32 12 4 C10.35 4 8.7 4 7 4 C7 4.66 7 5.32 7 6 C8.32 6.33 9.64 6.66 11 7 C3.58358663 7.36474164 3.58358663 7.36474164 1 5.75 C0 4 0 4 0 0 Z " fill="#F2CB44" transform="translate(171,140)"/>
<path d="M0 0 C3 1 3 1 5 4 C5.66 4 6.32 4 7 4 C7 7.3 7 10.6 7 14 C3.81994972 10.11327187 0.89445553 6.10047867 -2 2 C-1.34 2 -0.68 2 0 2 C0 1.34 0 0.68 0 0 Z " fill="#499BCC" transform="translate(194,70)"/>
<path d="M0 0 C1.258125 -0.020625 2.51625 -0.04125 3.8125 -0.0625 C4.52019531 -0.07410156 5.22789063 -0.08570312 5.95703125 -0.09765625 C8 0 8 0 11 1 C12.4783226 3.95664519 12.06032783 6.74229737 12 10 C11.34 9.01 10.68 8.02 10 7 C9.01 8.485 9.01 8.485 8 10 C7.34 7.03 6.68 4.06 6 1 C4.02 1 2.04 1 0 1 C0 0.67 0 0.34 0 0 Z " fill="#F4CD46" transform="translate(112,120)"/>
<path d="M0 0 C0.66 0 1.32 0 2 0 C2.33 6.27 2.66 12.54 3 19 C2.01 19 1.02 19 0 19 C0 12.73 0 6.46 0 0 Z " fill="#FAC71F" transform="translate(151,125)"/>
<path d="M0 0 C4.875 3.625 4.875 3.625 6 7 C5.34 7 4.68 7 4 7 C4 9.31 4 11.62 4 14 C1.49263491 11.81968253 0.51399757 10.28958446 0 7 C0 6.01 0 5.02 0 4 C-0.33 3.01 -0.66 2.02 -1 1 C-0.67 0.67 -0.34 0.34 0 0 Z " fill="#3C9EDA" transform="translate(246,118)"/>
<path d="M0 0 C0.66 0 1.32 0 2 0 C2.66 4.95 3.32 9.9 4 15 C5.65 15 7.3 15 9 15 C9 15.33 9 15.66 9 16 C6.36 16 3.72 16 1 16 C0.67 10.72 0.34 5.44 0 0 Z " fill="#CFEFFA" transform="translate(212,88)"/>
<path d="M0 0 C0 0.33 0 0.66 0 1 C-10.395 1.495 -10.395 1.495 -21 2 C-21.33 1.34 -21.66 0.68 -22 0 C-14.78621941 -1.64364621 -7.23192788 -1.56366008 0 0 Z " fill="#5DA5CE" transform="translate(177,55)"/>
<path d="M0 0 C0.33 0 0.66 0 1 0 C1.375 2.1875 1.375 2.1875 1 5 C-1.6875 7.5 -1.6875 7.5 -3.33203125 8.73046875 C-5.79209781 10.60288475 -7.848194 12.78490559 -10 15 C-10.99 14.67 -11.98 14.34 -13 14 C-12.31292969 13.40832031 -11.62585938 12.81664062 -10.91796875 12.20703125 C-10.01691406 11.41683594 -9.11585938 10.62664062 -8.1875 9.8125 C-7.29417969 9.03519531 -6.40085938 8.25789062 -5.48046875 7.45703125 C-3.10687032 5.10586052 -1.62816626 2.89166436 0 0 Z " fill="#DBF4FC" transform="translate(253,166)"/>
<path d="M0 0 C1.32 0 2.64 0 4 0 C4 4 4 4 2.4375 5.75 C-0.8054752 7.4130642 -3.40866296 7.20719252 -7 7 C-7 6.67 -7 6.34 -7 6 C-5.35 6 -3.7 6 -2 6 C-2 5.34 -2 4.68 -2 4 C-3.32 3.67 -4.64 3.34 -6 3 C-4.02 2.67 -2.04 2.34 0 2 C0 1.34 0 0.68 0 0 Z " fill="#F3CC47" transform="translate(120,140)"/>
<path d="M0 0 C1.32 0.66 2.64 1.32 4 2 C4.125 5.375 4.125 5.375 4 9 C2 11 2 11 -1.125 11.125 C-2.548125 11.063125 -2.548125 11.063125 -4 11 C-4 10.34 -4 9.68 -4 9 C-2.35 9 -0.7 9 1 9 C0.67 6.03 0.34 3.06 0 0 Z " fill="#F7C923" transform="translate(182,135)"/>
<path d="M0 0 C8.58 0 17.16 0 26 0 C26.33 0.99 26.66 1.98 27 3 C25.34484375 2.75443359 25.34484375 2.75443359 23.65625 2.50390625 C18.59776685 1.87159586 13.59063952 1.8894053 8.5 1.9375 C7.12328125 1.94426758 7.12328125 1.94426758 5.71875 1.95117188 C3.47909609 1.96283674 1.23958455 1.97920386 -1 2 C-0.67 1.34 -0.34 0.68 0 0 Z " fill="#D1F1FD" transform="translate(79,38)"/>
<path d="M0 0 C0.99 0.33 1.98 0.66 3 1 C3 6.61 3 12.22 3 18 C2.34 18 1.68 18 1 18 C0.67 12.06 0.34 6.12 0 0 Z " fill="#FCC90D" transform="translate(162,123)"/>
<path d="M0 0 C3.37492629 -0.05845196 6.74972087 -0.09374742 10.125 -0.125 C11.07632813 -0.14175781 12.02765625 -0.15851563 13.0078125 -0.17578125 C18.08583255 -0.21104528 22.24487525 -0.03333617 27 2 C23.40958827 3.06914483 20.50525501 2.80302284 16.79296875 2.32421875 C11.21465421 1.67666615 5.60219604 1.37454227 0 1 C0 0.67 0 0.34 0 0 Z " fill="#E7FCFE" transform="translate(204,113)"/>
<path d="M0 0 C9.04576659 -0.45995423 9.04576659 -0.45995423 13 3 C13 4.32 13 5.64 13 7 C11.68 7 10.36 7 9 7 C7 4 7 4 7 1 C4.36 1.33 1.72 1.66 -1 2 C-0.67 1.34 -0.34 0.68 0 0 Z " fill="#F0CC47" transform="translate(174,120)"/>
<path d="M0 0 C0.99 0.33 1.98 0.66 3 1 C3.33 3.64 3.66 6.28 4 9 C3.01 9.66 2.02 10.32 1 11 C-1.78637633 6.8204355 -0.79562512 4.85331323 0 0 Z " fill="#3B9DD6" transform="translate(40,70)"/>
<path d="M0 0 C-1.50920657 3.01841313 -4.00660053 3.56086564 -7 5 C-7.86625 5.5775 -8.7325 6.155 -9.625 6.75 C-12 8 -12 8 -14.1484375 7.578125 C-14.75945312 7.38734375 -15.37046875 7.1965625 -16 7 C-14.39805929 6.01719585 -12.79336258 5.03888283 -11.1875 4.0625 C-10.29417969 3.51722656 -9.40085938 2.97195312 -8.48046875 2.41015625 C-5.47519061 0.7016438 -3.47244658 0 0 0 Z " fill="#DBF2FA" transform="translate(158,64)"/>
<path d="M0 0 C2.91517292 1.07401108 4.77810176 1.77810176 7 4 C7.26991906 6.68839385 7.08737357 9.29141936 7 12 C6.67 12 6.34 12 6 12 C5.814375 10.2984375 5.814375 10.2984375 5.625 8.5625 C5.41875 7.386875 5.2125 6.21125 5 5 C4.34 4.67 3.68 4.34 3 4 C2.67 4.66 2.34 5.32 2 6 C0.02 5.01 -1.96 4.02 -4 3 C-2.68 2.67 -1.36 2.34 0 2 C0 1.34 0 0.68 0 0 Z " fill="#F2CA47" transform="translate(180,132)"/>
<path d="M0 0 C2.475 0.495 2.475 0.495 5 1 C5 1.66 5 2.32 5 3 C4.01 3 3.02 3 2 3 C2 6.3 2 9.6 2 13 C1.34 13 0.68 13 0 13 C0 8.71 0 4.42 0 0 Z " fill="#F8C822" transform="translate(196,121)"/>
<path d="M0 0 C1.65 0 3.3 0 5 0 C5 1.98 5 3.96 5 6 C5.99 6 6.98 6 8 6 C8.33 7.65 8.66 9.3 9 11 C8.34 11 7.68 11 7 11 C7 10.01 7 9.02 7 8 C5.68 8 4.36 8 3 8 C3 5.69 3 3.38 3 1 C2.01 0.67 1.02 0.34 0 0 Z " fill="#FEFAD2" transform="translate(196,113)"/>
<path d="M0 0 C5.875 0.875 5.875 0.875 7 2 C9.32817964 2.36760731 11.6618385 2.70241581 14 3 C14 3.99 14 4.98 14 6 C8.65155992 5.46515599 4.64203897 3.53309233 0 1 C0 0.67 0 0.34 0 0 Z " fill="#56A1CB" transform="translate(21,180)"/>
<path d="M0 0 C8.19256018 -0.4726477 8.19256018 -0.4726477 11.5625 1.5 C12.036875 1.995 12.51125 2.49 13 3 C12.67 3.66 12.34 4.32 12 5 C11.34 4.67 10.68 4.34 10 4 C9.34 4.66 8.68 5.32 8 6 C7.67 4.35 7.34 2.7 7 1 C4.36 1.33 1.72 1.66 -1 2 C-0.67 1.34 -0.34 0.68 0 0 Z " fill="#F7D053" transform="translate(153,120)"/>
<path d="M0 0 C1.4540625 0.0309375 1.4540625 0.0309375 2.9375 0.0625 C2.9375 1.0525 2.9375 2.0425 2.9375 3.0625 C0.4625 2.0725 0.4625 2.0725 -2.0625 1.0625 C-2.0625 2.3825 -2.0625 3.7025 -2.0625 5.0625 C-0.7425 5.7225 0.5775 6.3825 1.9375 7.0625 C-0.55342811 8.30796405 -1.47330733 7.8392578 -4.0625 7.0625 C-4.10504356 5.06295254 -4.10330783 3.06208364 -4.0625 1.0625 C-3.0625 0.0625 -3.0625 0.0625 0 0 Z " fill="#FDF4B9" transform="translate(179.0625,123.9375)"/>
<path d="M0 0 C3.3 0 6.6 0 10 0 C10 1.32 10 2.64 10 4 C6.7 4 3.4 4 0 4 C0 3.67 0 3.34 0 3 C1.98 3 3.96 3 6 3 C6 2.34 6 1.68 6 1 C4.02 1 2.04 1 0 1 C0 0.67 0 0.34 0 0 Z " fill="#EBC93D" transform="translate(132,127)"/>
<path d="M0 0 C5.26964527 2.63482263 8.97903554 6.79943911 13 11 C9.06830895 11 7.83572772 9.60580385 5 7 C5 6.34 5 5.68 5 5 C4.01 5 3.02 5 2 5 C2 4.01 2 3.02 2 2 C1.34 2 0.68 2 0 2 C0 1.34 0 0.68 0 0 Z " fill="#599DC5" transform="translate(192,62)"/>
<path d="M0 0 C1.32 0.66 2.64 1.32 4 2 C3.67 3.65 3.34 5.3 3 7 C1.02 7 -0.96 7 -3 7 C-3.33 6.01 -3.66 5.02 -4 4 C-1.03 4.495 -1.03 4.495 2 5 C2 4.01 2 3.02 2 2 C1.34 2 0.68 2 0 2 C0 1.34 0 0.68 0 0 Z " fill="#FEFABB" transform="translate(179,136)"/>
<path d="M0 0 C1.2065625 0.0309375 1.2065625 0.0309375 2.4375 0.0625 C1.79296875 0.58328125 1.1484375 1.1040625 0.484375 1.640625 C-2.16235676 4.77225418 -2.15040924 6.76023096 -2.3125 10.8125 C-2.36921875 11.98296875 -2.4259375 13.1534375 -2.484375 14.359375 C-2.51015625 15.25140625 -2.5359375 16.1434375 -2.5625 17.0625 C-2.8925 17.0625 -3.2225 17.0625 -3.5625 17.0625 C-3.58934679 14.41659986 -3.60926357 11.77096904 -3.625 9.125 C-3.63337891 8.37025391 -3.64175781 7.61550781 -3.65039062 6.83789062 C-3.65902441 4.91255687 -3.61474333 2.98714419 -3.5625 1.0625 C-2.5625 0.0625 -2.5625 0.0625 0 0 Z " fill="#FEFAD4" transform="translate(157.5625,123.9375)"/>
<path d="M0 0 C2.05078125 0.03255208 4.1015625 0.06510417 6.15234375 0.09765625 C6.15234375 1.08765625 6.15234375 2.07765625 6.15234375 3.09765625 C3.84234375 3.75765625 1.53234375 4.41765625 -0.84765625 5.09765625 C-0.84765625 4.10765625 -0.84765625 3.11765625 -0.84765625 2.09765625 C-1.50765625 1.76765625 -2.16765625 1.43765625 -2.84765625 1.09765625 C-1.84765625 0.09765625 -1.84765625 0.09765625 0 0 Z " fill="#F8C826" transform="translate(111.84765625,120.90234375)"/>
<path d="M0 0 C4.95 0 9.9 0 15 0 C14.67 0.99 14.34 1.98 14 3 C14 2.34 14 1.68 14 1 C11.03 1 8.06 1 5 1 C5 1.66 5 2.32 5 3 C3.35 3 1.7 3 0 3 C0 2.01 0 1.02 0 0 Z " fill="#E2CB51" transform="translate(54,111)"/>
<path d="M0 0 C0.33 0 0.66 0 1 0 C1.33 5.94 1.66 11.88 2 18 C1.01 17.67 0.02 17.34 -1 17 C-0.67 11.39 -0.34 5.78 0 0 Z " fill="#6DAFD9" transform="translate(43,88)"/>
<path d="M0 0 C-0.66 1.32 -1.32 2.64 -2 4 C-5.66666667 4 -9.33333333 4 -13 4 C-10.34531286 2.23020858 -8.92500069 1.57859829 -5.9375 0.875 C-5.24527344 0.70742187 -4.55304688 0.53984375 -3.83984375 0.3671875 C-2 0 -2 0 0 0 Z " fill="#E1F4FB" transform="translate(234,184)"/>
<path d="M0 0 C0.33 0 0.66 0 1 0 C1.04125 1.0725 1.0825 2.145 1.125 3.25 C1.64608309 7.23561704 1.64608309 7.23561704 5.0625 9.4375 C6.031875 9.953125 7.00125 10.46875 8 11 C4.37673261 12.2077558 3.35853631 11.54311128 0 10 C0 6.7 0 3.4 0 0 Z " fill="#FEF5B3" transform="translate(170,124)"/>
<path d="M0 0 C2.475 0.495 2.475 0.495 5 1 C5 3.31 5 5.62 5 8 C4.34 7.67 3.68 7.34 3 7 C3 6.34 3 5.68 3 5 C2.34 5 1.68 5 1 5 C0.67 3.35 0.34 1.7 0 0 Z " fill="#E2F6FB" transform="translate(17,162)"/>
<path d="M0 0 C0.66 0 1.32 0 2 0 C1.67 1.32 1.34 2.64 1 4 C-3.455 4.495 -3.455 4.495 -8 5 C-8.33 4.34 -8.66 3.68 -9 3 C-7.88625 2.87625 -6.7725 2.7525 -5.625 2.625 C-1.96896323 2.3534187 -1.96896323 2.3534187 0 0 Z " fill="#FEF9D1" transform="translate(122,144)"/>
<path d="M0 0 C0.66 0.33 1.32 0.66 2 1 C1.34 3.97 0.68 6.94 0 10 C-0.66 9.67 -1.32 9.34 -2 9 C-2.25 3.375 -2.25 3.375 0 0 Z " fill="#3F9CD9" transform="translate(48,64)"/>
<path d="M0 0 C4.95 1.98 4.95 1.98 10 4 C9.67 4.66 9.34 5.32 9 6 C6.36 5.34 3.72 4.68 1 4 C0.67 2.68 0.34 1.36 0 0 Z " fill="#579EC9" transform="translate(26,173)"/>
<path d="M0 0 C0.66 0.99 1.32 1.98 2 3 C-5.28571429 7.42857143 -5.28571429 7.42857143 -10 8 C-6.66666667 5.33333333 -3.33333333 2.66666667 0 0 Z " fill="#539BC6" transform="translate(242,167)"/>
<path d="M0 0 C0.33 0 0.66 0 1 0 C1.05422947 1.4370809 1.09289723 2.87475462 1.125 4.3125 C1.14820313 5.11300781 1.17140625 5.91351563 1.1953125 6.73828125 C1 9 1 9 -1 12 C-1.66 12 -2.32 12 -3 12 C-2.01 8.04 -1.02 4.08 0 0 Z " fill="#D4F1FC" transform="translate(258,152)"/>
<path d="M0 0 C-3.12432397 2.52349243 -6.38060496 4.27256146 -10 6 C-10 5.01 -10 4.02 -10 3 C-9.34 3 -8.68 3 -8 3 C-8 2.34 -8 1.68 -8 1 C-5.29120665 -0.35439668 -2.99066732 -0.06501451 0 0 Z " fill="#DAF5FB" transform="translate(69,42)"/>
<path d="M0 0 C0 0.99 0 1.98 0 3 C-2.875 3.125 -2.875 3.125 -6 3 C-6.66 2.34 -7.32 1.68 -8 1 C-5.29120665 -0.35439668 -2.99066732 -0.06501451 0 0 Z " fill="#F8C819" transform="translate(181,121)"/>
<path d="M0 0 C0.66 0.33 1.32 0.66 2 1 C-0.54631035 3.97069541 -3.42230149 5.4775751 -7 7 C-7.66 6.67 -8.32 6.34 -9 6 C-6.03 4.02 -3.06 2.04 0 0 Z " fill="#D7F2FA" transform="translate(30,115)"/>
<path d="M0 0 C6.15234375 0.5859375 6.15234375 0.5859375 8 1 C8.33 1.66 8.66 2.32 9 3 C8.34 3.66 7.68 4.32 7 5 C3.535 3.02 3.535 3.02 0 1 C0 0.67 0 0.34 0 0 Z " fill="#E4F8FD" transform="translate(188,59)"/>
<path d="M0 0 C1.32 0.66 2.64 1.32 4 2 C3.67 3.65 3.34 5.3 3 7 C2.34 5.68 1.68 4.36 1 3 C0.67 4.98 0.34 6.96 0 9 C-0.33 9 -0.66 9 -1 9 C-1.09765625 2.84765625 -1.09765625 2.84765625 -1 1 C-0.67 0.67 -0.34 0.34 0 0 Z " fill="#F3CE44" transform="translate(172,122)"/>
<path d="M0 0 C0.99 0 1.98 0 3 0 C3 0.66 3 1.32 3 2 C4.32 2.66 5.64 3.32 7 4 C7 4.99 7 5.98 7 7 C3.17053157 5.54744301 1.87949705 3.57104439 0 0 Z " fill="#E2F7FE" transform="translate(131,57)"/>
<path d="M0 0 C2 2 2 2 2.1953125 3.9453125 C2.13020833 5.96354167 2.06510417 7.98177083 2 10 C-0.58787727 7.41212273 -0.62709152 5.57992139 -1 2 C-0.67 1.34 -0.34 0.68 0 0 Z " fill="#3A9EDB" transform="translate(249,158)"/>
<path d="M0 0 C0.33 0 0.66 0 1 0 C1.05399736 1.45792884 1.09279177 2.91642712 1.125 4.375 C1.14820313 5.18710938 1.17140625 5.99921875 1.1953125 6.8359375 C1 9 1 9 -1 11 C-3.125 10.625 -3.125 10.625 -5 10 C-3.35 9.34 -1.7 8.68 0 8 C0 5.36 0 2.72 0 0 Z " fill="#FEF1BD" transform="translate(187,136)"/>
<path d="M0 0 C0.33 0 0.66 0 1 0 C1 2.97 1 5.94 1 9 C-0.32 9 -1.64 9 -3 9 C-3 8.01 -3 7.02 -3 6 C-2.01 6 -1.02 6 0 6 C0 4.02 0 2.04 0 0 Z " fill="#F1CD39" transform="translate(195,115)"/>
<path d="M0 0 C2.50037734 2.17424117 3.43628586 3.73045798 4 7 C3.01 7.33 2.02 7.66 1 8 C1 6.35 1 4.7 1 3 C0.34 3 -0.32 3 -1 3 C-0.67 2.01 -0.34 1.02 0 0 Z " fill="#53A1D1" transform="translate(205,75)"/>
<path d="M0 0 C5.875 4.625 5.875 4.625 7 8 C6.34 8 5.68 8 5 8 C4.67 7.34 4.34 6.68 4 6 C3.01 5.67 2.02 5.34 1 5 C0.67 3.35 0.34 1.7 0 0 Z " fill="#D1F1F9" transform="translate(238,120)"/>
</svg>
